<svg fill="none" height="15" viewBox="0 0 24 24" width="15 " xmlns="http://www.w3.org/2000/svg"><g stroke="#141b34" stroke-width="1.5"><path d="m21 17.5c0 1.933-1.567 3.5-3.5 3.5s-3.5-1.567-3.5-3.5 1.567-3.5 3.5-3.5 3.5 1.567 3.5 3.5z"/><path d="m17.5 14h-11c-1.933 0-3.5 1.567-3.5 3.5s1.567 3.5 3.5 3.5h11c1.933 0 3.5-1.567 3.5-3.5s-1.567-3.5-3.5-3.5z"/><path d="m3 6.5c0 1.933 1.567 3.5 3.5 3.5s3.5-1.567 3.5-3.5-1.567-3.5-3.5-3.5-3.5 1.567-3.5 3.5z"/><path d="m6.5 3h11c1.933 0 3.5 1.567 3.5 3.5s-1.567 3.5-3.5 3.5h-11c-1.933 0-3.5-1.567-3.5-3.5s1.567-3.5 3.5-3.5z"/></g></svg>